<svg xmlns="http://www.w3.org/2000/svg" viewBox="0 0 147.78 41.64"><defs><style>.cls-1{fill:#e41523;}.cls-2{fill:#1c294b;}.cls-3{fill:#706f6f;}.cls-4{fill:#bbbaba;}.cls-5{fill:#fff;}</style></defs><g id="Layer_2" data-name="Layer 2"><g id="Layer_1-2" data-name="Layer 1"><rect class="cls-1" x="15.32" y="15.81" width="10.37" height="10.37" rx="1.08" transform="translate(-8.84 20.65) rotate(-45)"/><path class="cls-2" d="M15.85,8.61a3.62,3.62,0,0,0,2.22-.92l1.45-1.45a1.3,1.3,0,0,1,1.83,0l1.46,1.45A3.57,3.57,0,0,0,25,8.61h3.19c.72,0,1.31,0,1.32,0s-.39-.43-.9-.93L21.35.38a1.29,1.29,0,0,0-1.83,0L12.24,7.66c-.51.5-.91.92-.9.93s.6,0,1.32,0Z"/><path class="cls-3" d="M25,33a3.57,3.57,0,0,0-2.21.92L21.35,35.4a1.29,1.29,0,0,1-1.83,0L18.07,34A3.62,3.62,0,0,0,15.85,33H12.66c-.72,0-1.31,0-1.32,0s.4.43.9.94l7.28,7.27a1.29,1.29,0,0,0,1.83,0L28.63,34c.51-.51.91-.93.9-.94s-.6,0-1.32,0Z"/><path class="cls-4" d="M8.61,25.46a3.59,3.59,0,0,0-.92-2.22L6.24,21.79a1.32,1.32,0,0,1,0-1.84L7.69,18.5a3.57,3.57,0,0,0,.92-2.21V13.1c0-.72,0-1.31,0-1.32s-.43.39-.93.9L.38,20a1.3,1.3,0,0,0,0,1.84l7.28,7.28c.5.5.92.91.93.9s0-.61,0-1.32Z"/><path class="cls-4" d="M32.53,16.29a3.61,3.61,0,0,0,.91,2.21L34.9,20a1.32,1.32,0,0,1,0,1.84l-1.46,1.45a3.64,3.64,0,0,0-.91,2.22v3.19c0,.71,0,1.31,0,1.32s.43-.4.93-.9l7.28-7.28a1.32,1.32,0,0,0,0-1.84l-7.28-7.27c-.5-.51-.92-.91-.93-.9s0,.6,0,1.32Z"/><path class="cls-5" d="M61.72,33.82V27.07a1.23,1.23,0,0,0-1.39-1.3,1.64,1.64,0,0,0-1.21.46v7.59H56.33V27c0-.77-.53-1.27-1.5-1.27a2.8,2.8,0,0,0-1.12.18v7.87H50.93V24.74A8.83,8.83,0,0,1,54.82,24a4.16,4.16,0,0,1,3,1A4.66,4.66,0,0,1,61,24c2.29,0,3.46,1.36,3.46,3.05v6.75Z"/><path class="cls-5" d="M68.84,30a2.11,2.11,0,0,0,2.32,2.11,5.48,5.48,0,0,0,2.49-.52l.63,1.73a7.59,7.59,0,0,1-3.45.69c-2.94,0-4.63-1.94-4.63-5s1.57-5,4.33-5,4.19,1.89,4.07,5.14Zm1.58-4.32c-1.14,0-1.85,1-1.76,3L72,28.13C72,26.41,71.44,25.66,70.42,25.66Zm.63-2.44H69.53l1.22-2.57c.82-.5,2.33-.53,2.6.07Z"/><path class="cls-5" d="M81.68,33.82V27.09c0-.68-.3-1.34-1.43-1.34a3.27,3.27,0,0,0-1.18.2v7.87H76.29V24.74a10.06,10.06,0,0,1,4-.72c3.05,0,4.14,1.3,4.14,3.05v6.75Z"/><path class="cls-5" d="M90.26,34c-2.78,0-4.21-1-4.21-3,0-2.48,2.48-3.21,5.37-3.48V27c0-1-.68-1.29-1.7-1.29a6.43,6.43,0,0,0-2.49.59l-.61-1.59A9.34,9.34,0,0,1,90.24,24c2.18,0,3.78.91,3.78,3.52v5.74A8.31,8.31,0,0,1,90.26,34Zm1.16-5.22c-1.68.16-2.77.55-2.77,2.08,0,1.13.65,1.61,1.75,1.61a2.28,2.28,0,0,0,1-.2Z"/><path class="cls-5" d="M100.69,26A2.34,2.34,0,0,0,98.84,26v7.85H96.06V24.74a10.39,10.39,0,0,1,5.15-.68Z"/><path class="cls-5" d="M105.78,34c-2.79,0-4.21-1-4.21-3,0-2.48,2.48-3.21,5.37-3.48V27c0-1-.68-1.29-1.7-1.29a6.48,6.48,0,0,0-2.5.59l-.6-1.59a9.29,9.29,0,0,1,3.62-.73c2.18,0,3.78.91,3.78,3.52v5.74A8.31,8.31,0,0,1,105.78,34Zm1.16-5.22c-1.68.16-2.77.55-2.77,2.08,0,1.13.64,1.61,1.75,1.61a2.28,2.28,0,0,0,1-.2Z"/><path class="cls-5" d="M116.85,34a4.72,4.72,0,0,1-1.43-.22v3.73H114V25.16a5.59,5.59,0,0,1,2.85-.65c2.57,0,4,1.8,4,4.6C120.83,32.14,119.25,34,116.85,34Zm-.12-8.54a3,3,0,0,0-1.31.26v7.16a2.94,2.94,0,0,0,1.12.21c1.85,0,2.8-1.44,2.8-3.87S118.66,25.41,116.73,25.41Z"/><path class="cls-5" d="M126.39,25.67a2.67,2.67,0,0,0-2.09.17v8h-1.49V25.17a7.37,7.37,0,0,1,3.93-.64Z"/><path class="cls-5" d="M129,29.82c.17,2.06,1.14,3.08,2.78,3.08a4.53,4.53,0,0,0,2.25-.52l.39,1a5.49,5.49,0,0,1-2.76.63c-2.39,0-4.06-1.51-4.06-4.77,0-3.1,1.52-4.71,3.67-4.71s3.51,1.43,3.48,4.48Zm2.22-4.34c-1.32,0-2.3,1.07-2.27,3.54l4.37-.66C133.35,26.29,132.56,25.48,131.25,25.48Zm.2-1.8h-.84l1.18-2.32c.61-.37,1.44-.39,1.6,0Z"/><path class="cls-5" d="M138.66,25.61v8.21h-1.49V25.61h-1.06v-.93h1.06V23.4a2.68,2.68,0,0,1,3.08-2.89v.95a1.53,1.53,0,0,0-1.59,1.77v1.45h1.59v.93Z"/><path class="cls-5" d="M144.54,34c-2.38,0-3.48-1-3.48-2.7,0-2.42,2.27-3.13,5.1-3.42v-.56c0-1.41-.84-1.81-2-1.81a5.21,5.21,0,0,0-2.21.57l-.35-.88a6,6,0,0,1,2.79-.68c1.7,0,3.19.73,3.19,3v5.86A6.4,6.4,0,0,1,144.54,34Zm1.62-5.36c-2.3.29-3.67.78-3.67,2.63,0,1.32.81,1.86,2.17,1.86a3.34,3.34,0,0,0,1.5-.3Z"/><path class="cls-5" d="M146.56,10.48a4.05,4.05,0,0,0-3-1.22,3.61,3.61,0,0,0-2.36.78s-.17.16-1.4,1.48a2.36,2.36,0,0,1-1.57.85.83.83,0,0,1-.82-.92V8.27L135,8.9v2.59a.8.8,0,0,1-.76.88h-20a.78.78,0,0,1-.75-.84V3.94l-2.48.63v7.55a2.75,2.75,0,0,0,1,2.28,3.51,3.51,0,0,0,1.92.75l.17,0h20.44a2.45,2.45,0,0,0,1.64-.68l.14-.13.13.13a2.66,2.66,0,0,0,1.8.68h.21a2,2,0,0,0,1-.36l.21-.15.08.25a3.53,3.53,0,0,0,1.48,2,4.37,4.37,0,0,0,2.41.73,4.06,4.06,0,0,0,3-1.22,4.14,4.14,0,0,0,0-5.88Zm-1.95,3.95a1.38,1.38,0,0,1-1,.42,1.51,1.51,0,0,1-1-.4,1.43,1.43,0,0,1,0-2.06,1.48,1.48,0,0,1,1-.42,1.35,1.35,0,0,1,1,.43,1.42,1.42,0,0,1,0,2Z"/><path class="cls-5" d="M136.26,6.49a1,1,0,0,0,.78-.33,1,1,0,0,0,.34-.78,1,1,0,0,0-.34-.77,1.05,1.05,0,0,0-1.55,0,1,1,0,0,0-.33.77,1,1,0,0,0,.32.79A1,1,0,0,0,136.26,6.49Z"/><path class="cls-5" d="M97.58,6a1,1,0,0,0,.7-.3,1,1,0,0,0,.29-.73,1,1,0,0,0-.29-.73,1,1,0,0,0-.7-.31,1,1,0,0,0-.73.31,1,1,0,0,0-.31.73,1,1,0,0,0,1,1Z"/><path class="cls-5" d="M101,6a.94.94,0,0,0,.7-.31,1,1,0,0,0,.29-.72,1.07,1.07,0,0,0-.29-.73,1,1,0,0,0-.7-.31,1.08,1.08,0,0,0-.75.31,1,1,0,0,0-.3.73,1,1,0,0,0,.3.72A1,1,0,0,0,101,6Z"/><path class="cls-5" d="M102.22,8.38a3.92,3.92,0,0,0-.47-.4l0,0a.07.07,0,0,0,0,0l-.42-.25-.05,0L101,7.54A4.35,4.35,0,0,0,100,7.22h-.09l-.23,0h-.37l-.39,0h-.06l-.34,0H98.4l-.32.08h0l-.3.11a4.19,4.19,0,0,0-1.42.94,4,4,0,0,0-1.23,2.93,4.11,4.11,0,0,0,1.69,3.35l0,0,0,0a4.14,4.14,0,0,0,.43.24l0,0,.2.1a4.4,4.4,0,0,0,1.07.32h.15l.18,0h.85l.3-.05h.07l.33-.08h0l.29-.11a4.23,4.23,0,0,0,1.43-.94,4,4,0,0,0,1.23-2.94A3.94,3.94,0,0,0,102.22,8.38Zm-1.91,4a1.53,1.53,0,0,1-1,.42,1.4,1.4,0,0,1-1-.43,1.44,1.44,0,0,1-.41-1,1.42,1.42,0,0,1,.42-1,1.39,1.39,0,0,1,1-.43,1.52,1.52,0,0,1,1,.41,1.4,1.4,0,0,1,0,2.06Z"/><path class="cls-5" d="M105.82,12.49v1.16c-.06,1.41-.31,2.28-.76,2.67a2.32,2.32,0,0,1-1.29.44l-.38,0-.41,0-.3,2.71a7,7,0,0,0,4.25-1.44,3.88,3.88,0,0,0,1.15-2,12.29,12.29,0,0,0,.26-2.65V10.85l-2.52.63Z"/><path class="cls-5" d="M87.46,8.74v4a1.58,1.58,0,0,1-1.58,1.58H81.41v.57l0-.57a3.08,3.08,0,0,1-2-1.08l-.58-.71-.92.67a6.31,6.31,0,0,0,.64.79l.13.15c.13.13,1.24,1.36-.61,3.38l-3.17,2.9.77.84,3.18-2.91,0,0a4.25,4.25,0,0,0,1.36-3.09,2.89,2.89,0,0,0,1.24.24h4.46a2.72,2.72,0,0,0,2.72-2.72v-4Z"/><path class="cls-5" d="M87.92,16.54a.64.64,0,0,0-.64.64.64.64,0,0,0,1.28,0A.64.64,0,0,0,87.92,16.54Z"/><path class="cls-5" d="M70.56,16.54a.64.64,0,0,0-.64.64.64.64,0,0,0,.64.64.64.64,0,0,0,0-1.28Z"/><path class="cls-5" d="M73,16.54a.64.64,0,0,0-.64.64.64.64,0,0,0,.64.64.64.64,0,0,0,0-1.28Z"/><path class="cls-5" d="M58.58,6.53a.64.64,0,0,0,.64-.64.65.65,0,1,0-.64.64Z"/><path class="cls-5" d="M72.7,12.74a1.59,1.59,0,0,1-1.59,1.58H60.33a4.3,4.3,0,0,0,1.28-1.74h0a3.47,3.47,0,0,0,.24-1.25,3.39,3.39,0,1,0-5,3H53.55A1.58,1.58,0,0,1,52,12.74V4.17H50.83v8.57a2.72,2.72,0,0,0,2.72,2.72h4.32a.62.62,0,0,0,.56-.56h0c0,.49.51.56.55.56H71.11a2.72,2.72,0,0,0,2.73-2.72v-4H72.7Zm-14.25.84a2.25,2.25,0,1,1,2.25-2.25,2.29,2.29,0,0,1-.27,1.07h0A2.27,2.27,0,0,1,58.45,13.58Z"/></g></g></svg>